<svg xmlns="http://www.w3.org/2000/svg" version="1.1" xmlns:xlink="http://www.w3.org/1999/xlink"
    xmlns:svgjs="http://svgjs.dev/svgjs" width="1000" height="431" viewBox="0 0 1000 431">
    <g transform="matrix(1,0,0,1,-0.6060606060606233,0.5266545108187586)"><svg viewBox="0 0 396 171"
            data-background-color="#ffffff" preserveAspectRatio="xMidYMid meet" height="431" width="1000"
            xmlns="http://www.w3.org/2000/svg" xmlns:xlink="http://www.w3.org/1999/xlink">
            <g id="tight-bounds" transform="matrix(1,0,0,1,0.2400000000000091,-0.20895109361950404)"><svg
                    viewBox="0 0 395.52 171.417902187239" height="171.417902187239" width="395.52">
                    <g><svg viewBox="0 0 397.4975999999999 172.27499169817517" height="171.417902187239" width="395.52">
                            <g><svg viewBox="0 0 397.4975999999999 172.27499169817517" height="172.27499169817517"
                                    width="397.4975999999999">
                                    <g id="textblocktransform"><svg viewBox="0 0 397.4975999999999 172.27499169817517"
                                            height="172.27499169817517" width="397.4975999999999" id="textblock">
                                            <g>
                                                <rect width="397.4975999999999" height="10.300529180859359" x="0"
                                                    y="126.3547045898145" fill="#000000" opacity="1" stroke-width="0"
                                                    stroke="transparent" fill-opacity="1" class="rect-o-0"
                                                    data-fill-palette-color="primary" rx="1%" id="o-0"
                                                    data-palette-color="#000000"></rect>
                                            </g>
                                            <g transform="matrix(1,0,0,1,0.9887999999999693,0)"><svg
                                                    viewBox="0 0 395.52 114.22057335581788" height="114.22057335581788"
                                                    width="395.52">
                                                    <g transform="matrix(1,0,0,1,0,0)"><svg width="395.52"
                                                            viewBox="-0.10000000149011612 -33.45000076293945 115.81999969482422 33.45000076293945"
                                                            height="114.22057335581788" data-palette-color="#000000">
                                                            <path
                                                                d="M20.46-20.29L20.46-22.85 12.3-22.85 12.3-28.66 21.85-28.66 21.85-31.25 9.69-31.25 9.69-11.06 12.3-11.06 12.3-20.29 20.46-20.29ZM10.69-33.45L18.21-33.45Q20.68-33.45 22.68-32.71 24.68-31.98 26.09-30.71 27.49-29.44 28.25-27.75 29-26.05 29-24.15L29-24.15 29-9.3Q29-7.4 28.25-5.7 27.49-4 26.09-2.73 24.68-1.46 22.68-0.73 20.68 0 18.21 0L18.21 0 10.69 0Q8.23 0 6.23-0.73 4.22-1.46 2.82-2.73 1.42-4 0.66-5.7-0.1-7.4-0.1-9.3L-0.1-9.3-0.1-24.15Q-0.1-26.05 0.66-27.75 1.42-29.44 2.82-30.71 4.22-31.98 6.23-32.71 8.23-33.45 10.69-33.45L10.69-33.45ZM39.6-33.45L47.12-33.45Q49.58-33.45 51.58-32.71 53.59-31.98 54.99-30.71 56.39-29.44 57.15-27.75 57.91-26.05 57.91-24.15L57.91-24.15 57.91-9.3Q57.91-7.4 57.15-5.7 56.39-4 54.99-2.73 53.59-1.46 51.58-0.73 49.58 0 47.12 0L47.12 0 39.6 0Q37.13 0 35.13-0.73 33.13-1.46 31.72-2.73 30.32-4 29.56-5.7 28.81-7.4 28.81-9.3L28.81-9.3 28.81-24.15Q28.81-26.05 29.56-27.75 30.32-29.44 31.72-30.71 33.13-31.98 35.13-32.71 37.13-33.45 39.6-33.45L39.6-33.45ZM52.15-14.99L52.15-27.29 51.8-29.35 50.27-30.91 47.75-31.25 41.21-31.25 38.72-30.91 37.16-29.35 36.86-27.29 36.86-14.99 37.16-12.89 38.77-11.35 41.21-11.06 47.75-11.06 50.27-11.35 51.8-12.89 52.15-14.99ZM49.56-15.26L49.22-13.89 47.6-13.65 41.35-13.65 39.77-13.89 39.4-15.36 39.4-27.05 39.65-28.39 41.35-28.66 47.6-28.66 49.31-28.39 49.56-26.95 49.56-15.26ZM68.5-33.45L76.02-33.45Q78.49-33.45 80.49-32.71 82.49-31.98 83.89-30.71 85.3-29.44 86.05-27.75 86.81-26.05 86.81-24.15L86.81-24.15 86.81-9.3Q86.81-7.4 86.05-5.7 85.3-4 83.89-2.73 82.49-1.46 80.49-0.73 78.49 0 76.02 0L76.02 0 68.5 0Q66.04 0 64.03-0.73 62.03-1.46 60.63-2.73 59.22-4 58.47-5.7 57.71-7.4 57.71-9.3L57.71-9.3 57.71-24.15Q57.71-26.05 58.47-27.75 59.22-29.44 60.63-30.71 62.03-31.98 64.03-32.71 66.04-33.45 68.5-33.45L68.5-33.45ZM81.05-14.99L81.05-27.29 80.71-29.35 79.17-30.91 76.66-31.25 70.11-31.25 67.62-30.91 66.06-29.35 65.77-27.29 65.77-14.99 66.06-12.89 67.67-11.35 70.11-11.06 76.66-11.06 79.17-11.35 80.71-12.89 81.05-14.99ZM78.46-15.26L78.12-13.89 76.51-13.65 70.26-13.65 68.67-13.89 68.31-15.36 68.31-27.05 68.55-28.39 70.26-28.66 76.51-28.66 78.22-28.39 78.46-26.95 78.46-15.26ZM97.4-33.45L104.92-33.45Q107.39-33.45 109.39-32.71 111.39-31.98 112.8-30.71 114.2-29.44 114.96-27.75 115.72-26.05 115.72-24.15L115.72-24.15 115.72-9.3Q115.72-7.4 114.96-5.7 114.2-4 112.8-2.73 111.39-1.46 109.39-0.73 107.39 0 104.92 0L104.92 0 97.4 0Q94.94 0 92.94-0.73 90.93-1.46 89.53-2.73 88.13-4 87.37-5.7 86.61-7.4 86.61-9.3L86.61-9.3 86.61-24.15Q86.61-26.05 87.37-27.75 88.13-29.44 89.53-30.71 90.93-31.98 92.94-32.71 94.94-33.45 97.4-33.45L97.4-33.45ZM108.85-14.94L108.85-18.8 108.39-20.61 106.44-21.46 108.39-22.19 108.85-24.05 108.85-27.29 108.51-29.35 106.97-30.91 104.46-31.25 94.21-31.25 94.21-11.06 104.46-11.06 106.97-11.35 108.51-12.89 108.85-14.94ZM106.27-15.21L105.93-13.89 104.31-13.65 96.82-13.65 96.82-20.09 104.36-20.09 106.02-19.9 106.27-18.46 106.27-15.21ZM106.27-24.24L105.93-22.95 104.31-22.66 96.82-22.66 96.82-28.66 104.31-28.66 106.02-28.39 105.93-26.95 106.27-24.24Z"
                                                                opacity="1" transform="matrix(1,0,0,1,0,0)"
                                                                fill="#000000" class="wordmark-text-0"
                                                                data-fill-palette-color="primary" id="text-0"></path>
                                                        </svg></g>
                                                </svg></g>
                                            <g transform="matrix(1,0,0,1,0,148.78936500467051)"><svg
                                                    viewBox="0 0 395.52 23.485626693504685" height="23.485626693504685"
                                                    width="395.52">
                                                    <g transform="matrix(1,0,0,1,0,0)"><svg width="395.52"
                                                            viewBox="2.5999999046325684 -37.70000076293945 645.7900390625 38.35000228881836"
                                                            height="23.485626693504685" data-palette-color="#000000">
                                                            <path
                                                                d="M11 0L2.6 0 2.6-24.65Q2.6-27.55 4.03-29.9 5.45-32.25 7.88-33.63 10.3-35 13.3-35L13.3-35 26.35-35 26.35-28 14.35-28Q12.95-28 11.98-27 11-26 11-24.55L11-24.55 11-19.5 24.65-19.5 24.65-12.55 11-12.55 11 0ZM38.3 0L30.55 0 30.55-18.1Q30.55-21.6 32.55-23.6 34.55-25.6 38.1-25.6L38.1-25.6 45.55-25.6 45.55-19.3 40-19.3Q39.3-19.3 38.8-18.82 38.3-18.35 38.3-17.6L38.3-17.6 38.3 0ZM70 0L62.39 0Q58.05 0 54.74-1.63 51.45-3.25 49.62-6.13 47.8-9 47.8-12.8L47.8-12.8Q47.8-17 49.55-20 51.3-23 54.22-24.63 57.14-26.25 60.7-26.25L60.7-26.25Q64.75-26.25 67.47-24.55 70.19-22.85 71.59-19.93 73-17 73-13.25L73-13.25Q73-12.6 72.92-11.73 72.84-10.85 72.75-10.35L72.75-10.35 55.95-10.35Q56.24-9.05 57.09-8.15 57.95-7.25 59.24-6.83 60.55-6.4 62.14-6.4L62.14-6.4 70-6.4 70 0ZM55.74-15.2L55.74-15.2 65.5-15.2Q65.39-16 65.19-16.75 65-17.5 64.57-18.07 64.14-18.65 63.59-19.07 63.05-19.5 62.32-19.75 61.59-20 60.7-20L60.7-20Q59.55-20 58.64-19.6 57.74-19.2 57.14-18.53 56.55-17.85 56.22-16.98 55.89-16.1 55.74-15.2ZM90.04 0.6L90.04 0.6Q94.19 0.6 97.29-1.1 100.39-2.8 102.09-5.95 103.79-9.1 103.79-13.3L103.79-13.3 103.79-36.5 96.04-36.5 96.04-22.85 95.89-22.85Q95.14-23.9 94.02-24.68 92.89-25.45 91.52-25.85 90.14-26.25 88.59-26.25L88.59-26.25Q84.94-26.25 82.19-24.6 79.44-22.95 77.87-20.05 76.29-17.15 76.29-13.25L76.29-13.25Q76.29-10.25 77.24-7.7 78.19-5.15 79.97-3.28 81.74-1.4 84.27-0.4 86.79 0.6 90.04 0.6ZM90.04-6.1L90.04-6.1Q88.24-6.1 86.94-6.98 85.64-7.85 84.92-9.38 84.19-10.9 84.19-12.8L84.19-12.8Q84.19-14.7 84.92-16.2 85.64-17.7 86.94-18.57 88.24-19.45 90.04-19.45L90.04-19.45Q91.84-19.45 93.17-18.57 94.49-17.7 95.19-16.2 95.89-14.7 95.89-12.8L95.89-12.8Q95.89-10.9 95.19-9.38 94.49-7.85 93.17-6.98 91.84-6.1 90.04-6.1ZM130.39 0L122.79 0Q118.44 0 115.14-1.63 111.84-3.25 110.02-6.13 108.19-9 108.19-12.8L108.19-12.8Q108.19-17 109.94-20 111.69-23 114.62-24.63 117.54-26.25 121.09-26.25L121.09-26.25Q125.14-26.25 127.87-24.55 130.59-22.85 131.99-19.93 133.39-17 133.39-13.25L133.39-13.25Q133.39-12.6 133.31-11.73 133.24-10.85 133.14-10.35L133.14-10.35 116.34-10.35Q116.64-9.05 117.49-8.15 118.34-7.25 119.64-6.83 120.94-6.4 122.54-6.4L122.54-6.4 130.39-6.4 130.39 0ZM116.14-15.2L116.14-15.2 125.89-15.2Q125.79-16 125.59-16.75 125.39-17.5 124.97-18.07 124.54-18.65 123.99-19.07 123.44-19.5 122.72-19.75 121.99-20 121.09-20L121.09-20Q119.94-20 119.04-19.6 118.14-19.2 117.54-18.53 116.94-17.85 116.62-16.98 116.29-16.1 116.14-15.2ZM145.44 0L137.69 0 137.69-18.1Q137.69-21.6 139.69-23.6 141.69-25.6 145.24-25.6L145.24-25.6 152.69-25.6 152.69-19.3 147.14-19.3Q146.44-19.3 145.94-18.82 145.44-18.35 145.44-17.6L145.44-17.6 145.44 0ZM163.94 0L156.14 0 156.14-25.65 163.94-25.65 163.94 0ZM160.04-28.55L160.04-28.55Q158.19-28.55 156.84-29.9 155.49-31.25 155.49-33.1L155.49-33.1Q155.49-34.95 156.84-36.33 158.19-37.7 160.04-37.7L160.04-37.7Q161.89-37.7 163.24-36.33 164.59-34.95 164.59-33.1L164.59-33.1Q164.59-31.25 163.24-29.9 161.89-28.55 160.04-28.55ZM186.08 0L182.23 0Q178.23 0 175.13-1.68 172.03-3.35 170.23-6.23 168.43-9.1 168.43-12.8L168.43-12.8Q168.43-16.5 170.23-19.38 172.03-22.25 175.13-23.95 178.23-25.65 182.23-25.65L182.23-25.65 186.08-25.65 186.08-19.1 182.53-19.1Q180.58-19.1 179.18-18.28 177.78-17.45 177.01-16.03 176.23-14.6 176.23-12.8L176.23-12.8Q176.23-11 177.01-9.58 177.78-8.15 179.18-7.33 180.58-6.5 182.53-6.5L182.53-6.5 186.08-6.5 186.08 0ZM198.13 0L190.38 0 190.38-36.5 198.13-36.5 198.13-15.95 201.53-15.95 207.38-25.65 216.03-25.65 209.13-14.95Q212.13-13.7 213.81-11.13 215.48-8.55 215.48-5.1L215.48-5.1 215.48 0 207.68 0 207.68-5.1Q207.68-6.5 207.01-7.63 206.33-8.75 205.23-9.4 204.13-10.05 202.73-10.05L202.73-10.05 198.13-10.05 198.13 0ZM250.83 0.65L250.83 0.65Q246.63 0.65 243.23-0.75 239.83-2.15 237.38-4.65 234.93-7.15 233.6-10.45 232.28-13.75 232.28-17.55L232.28-17.55Q232.28-21.35 233.6-24.63 234.93-27.9 237.38-30.4 239.83-32.9 243.23-34.27 246.63-35.65 250.83-35.65L250.83-35.65Q254.98-35.65 258.4-34.27 261.83-32.9 264.25-30.4 266.68-27.9 268.03-24.63 269.38-21.35 269.38-17.55L269.38-17.55Q269.38-13.75 268.03-10.45 266.68-7.15 264.25-4.65 261.83-2.15 258.4-0.75 254.98 0.65 250.83 0.65ZM250.83-6.5L250.83-6.5Q253.03-6.5 254.9-7.33 256.78-8.15 258.13-9.65 259.48-11.15 260.23-13.18 260.98-15.2 260.98-17.55L260.98-17.55Q260.98-19.9 260.23-21.9 259.48-23.9 258.13-25.4 256.78-26.9 254.9-27.73 253.03-28.55 250.83-28.55L250.83-28.55Q248.58-28.55 246.73-27.73 244.88-26.9 243.5-25.4 242.13-23.9 241.4-21.9 240.68-19.9 240.68-17.55L240.68-17.55Q240.68-15.2 241.4-13.18 242.13-11.15 243.5-9.65 244.88-8.15 246.73-7.33 248.58-6.5 250.83-6.5ZM287.17 0L273.72 0 273.72-6.15 286.07-6.15Q286.57-6.15 286.97-6.38 287.37-6.6 287.62-7 287.87-7.4 287.87-7.85L287.87-7.85Q287.87-8.35 287.62-8.75 287.37-9.15 286.97-9.38 286.57-9.6 286.07-9.6L286.07-9.6 281.57-9.6Q279.07-9.6 277.05-10.43 275.02-11.25 273.85-13.03 272.67-14.8 272.67-17.65L272.67-17.65Q272.67-19.85 273.75-21.65 274.82-23.45 276.7-24.55 278.57-25.65 280.82-25.65L280.82-25.65 293.17-25.65 293.17-19.45 282.02-19.45Q281.32-19.45 280.85-19 280.37-18.55 280.37-17.9L280.37-17.9Q280.37-17.2 280.85-16.73 281.32-16.25 282.02-16.25L282.02-16.25 286.42-16.25Q289.22-16.25 291.25-15.43 293.27-14.6 294.4-12.8 295.52-11 295.52-8.15L295.52-8.15Q295.52-5.9 294.4-4.05 293.27-2.2 291.4-1.1 289.52 0 287.17 0L287.17 0ZM321.17 0L313.57 0Q309.22 0 305.92-1.63 302.62-3.25 300.8-6.13 298.97-9 298.97-12.8L298.97-12.8Q298.97-17 300.72-20 302.47-23 305.4-24.63 308.32-26.25 311.87-26.25L311.87-26.25Q315.92-26.25 318.65-24.55 321.37-22.85 322.77-19.93 324.17-17 324.17-13.25L324.17-13.25Q324.17-12.6 324.1-11.73 324.02-10.85 323.92-10.35L323.92-10.35 307.12-10.35Q307.42-9.05 308.27-8.15 309.12-7.25 310.42-6.83 311.72-6.4 313.32-6.4L313.32-6.4 321.17-6.4 321.17 0ZM306.92-15.2L306.92-15.2 316.67-15.2Q316.57-16 316.37-16.75 316.17-17.5 315.75-18.07 315.32-18.65 314.77-19.07 314.22-19.5 313.5-19.75 312.77-20 311.87-20L311.87-20Q310.72-20 309.82-19.6 308.92-19.2 308.32-18.53 307.72-17.85 307.4-16.98 307.07-16.1 306.92-15.2ZM336.47 0L328.67 0 328.67-25.65 336.47-25.65 336.47 0ZM332.57-28.55L332.57-28.55Q330.72-28.55 329.37-29.9 328.02-31.25 328.02-33.1L328.02-33.1Q328.02-34.95 329.37-36.33 330.72-37.7 332.57-37.7L332.57-37.7Q334.42-37.7 335.77-36.33 337.12-34.95 337.12-33.1L337.12-33.1Q337.12-31.25 335.77-29.9 334.42-28.55 332.57-28.55ZM372.51 0.65L372.51 0.65Q368.31 0.65 364.91-0.75 361.51-2.15 359.06-4.65 356.61-7.15 355.29-10.45 353.96-13.75 353.96-17.55L353.96-17.55Q353.96-21.35 355.29-24.63 356.61-27.9 359.06-30.4 361.51-32.9 364.91-34.27 368.31-35.65 372.51-35.65L372.51-35.65Q376.66-35.65 380.09-34.27 383.51-32.9 385.94-30.4 388.36-27.9 389.71-24.63 391.06-21.35 391.06-17.55L391.06-17.55Q391.06-13.75 389.71-10.45 388.36-7.15 385.94-4.65 383.51-2.15 380.09-0.75 376.66 0.65 372.51 0.65ZM372.51-6.5L372.51-6.5Q374.71-6.5 376.59-7.33 378.46-8.15 379.81-9.65 381.16-11.15 381.91-13.18 382.66-15.2 382.66-17.55L382.66-17.55Q382.66-19.9 381.91-21.9 381.16-23.9 379.81-25.4 378.46-26.9 376.59-27.73 374.71-28.55 372.51-28.55L372.51-28.55Q370.26-28.55 368.41-27.73 366.56-26.9 365.19-25.4 363.81-23.9 363.09-21.9 362.36-19.9 362.36-17.55L362.36-17.55Q362.36-15.2 363.09-13.18 363.81-11.15 365.19-9.65 366.56-8.15 368.41-7.33 370.26-6.5 372.51-6.5ZM405.06 0L397.31 0 397.31-19.3 393.01-19.3 393.01-25.65 397.31-25.65 397.31-29Q397.31-32.5 399.31-34.5 401.31-36.5 404.81-36.5L404.81-36.5 412.61-36.5 412.61-30.15 406.51-30.15Q405.91-30.15 405.49-29.73 405.06-29.3 405.06-28.7L405.06-28.7 405.06-25.65 411.51-25.65 411.51-19.3 405.06-19.3 405.06 0ZM427.61 0.6L427.61 0.6Q423.66 0.6 420.51-1.15 417.36-2.9 415.53-5.95 413.71-9 413.71-12.8L413.71-12.8Q413.71-16.65 415.53-19.68 417.36-22.7 420.51-24.48 423.66-26.25 427.61-26.25L427.61-26.25Q431.56-26.25 434.68-24.48 437.81-22.7 439.63-19.68 441.46-16.65 441.46-12.8L441.46-12.8Q441.46-9 439.63-5.95 437.81-2.9 434.66-1.15 431.51 0.6 427.61 0.6ZM427.61-6.15L427.61-6.15Q429.46-6.15 430.81-7.05 432.16-7.95 432.91-9.45 433.66-10.95 433.66-12.85L433.66-12.85Q433.66-14.7 432.91-16.2 432.16-17.7 430.81-18.6 429.46-19.5 427.61-19.5L427.61-19.5Q425.76-19.5 424.38-18.6 423.01-17.7 422.26-16.2 421.51-14.7 421.51-12.85L421.51-12.85Q421.51-10.95 422.26-9.45 423.01-7.95 424.38-7.05 425.76-6.15 427.61-6.15ZM453.61 0L445.86 0 445.86-18.1Q445.86-21.6 447.86-23.6 449.86-25.6 453.41-25.6L453.41-25.6 460.86-25.6 460.86-19.3 455.31-19.3Q454.61-19.3 454.11-18.82 453.61-18.35 453.61-17.6L453.61-17.6 453.61 0ZM472.1 0L464.3 0 464.3-25.65 472.1-25.65 472.1 0ZM468.2-28.55L468.2-28.55Q466.35-28.55 465-29.9 463.65-31.25 463.65-33.1L463.65-33.1Q463.65-34.95 465-36.33 466.35-37.7 468.2-37.7L468.2-37.7Q470.05-37.7 471.4-36.33 472.75-34.95 472.75-33.1L472.75-33.1Q472.75-31.25 471.4-29.9 470.05-28.55 468.2-28.55ZM491.05-9.7L476.9-9.7 476.9-15.95 491.05-15.95 491.05-9.7ZM509.5 0.6L509.5 0.6Q505.35 0.6 502.25-1.1 499.15-2.8 497.45-5.95 495.75-9.1 495.75-13.3L495.75-13.3 495.75-36.5 503.5-36.5 503.5-22.85 503.65-22.85Q504.4-23.9 505.52-24.68 506.65-25.45 508.02-25.85 509.4-26.25 510.95-26.25L510.95-26.25Q514.6-26.25 517.35-24.6 520.1-22.95 521.67-20.05 523.25-17.15 523.25-13.25L523.25-13.25Q523.25-10.25 522.3-7.7 521.35-5.15 519.57-3.28 517.8-1.4 515.27-0.4 512.75 0.6 509.5 0.6ZM509.5-6.1L509.5-6.1Q511.3-6.1 512.6-6.98 513.9-7.85 514.62-9.38 515.35-10.9 515.35-12.8L515.35-12.8Q515.35-14.7 514.62-16.2 513.9-17.7 512.6-18.57 511.3-19.45 509.5-19.45L509.5-19.45Q507.7-19.45 506.37-18.57 505.05-17.7 504.35-16.2 503.65-14.7 503.65-12.8L503.65-12.8Q503.65-10.9 504.35-9.38 505.05-7.85 506.37-6.98 507.7-6.1 509.5-6.1ZM540.54 0.6L540.54 0.6Q536.59 0.6 533.44-1.15 530.29-2.9 528.47-5.95 526.64-9 526.64-12.8L526.64-12.8Q526.64-16.65 528.47-19.68 530.29-22.7 533.44-24.48 536.59-26.25 540.54-26.25L540.54-26.25Q544.49-26.25 547.62-24.48 550.74-22.7 552.57-19.68 554.39-16.65 554.39-12.8L554.39-12.8Q554.39-9 552.57-5.95 550.74-2.9 547.59-1.15 544.44 0.6 540.54 0.6ZM540.54-6.15L540.54-6.15Q542.39-6.15 543.74-7.05 545.09-7.95 545.84-9.45 546.59-10.95 546.59-12.85L546.59-12.85Q546.59-14.7 545.84-16.2 545.09-17.7 543.74-18.6 542.39-19.5 540.54-19.5L540.54-19.5Q538.69-19.5 537.32-18.6 535.94-17.7 535.19-16.2 534.44-14.7 534.44-12.85L534.44-12.85Q534.44-10.95 535.19-9.45 535.94-7.95 537.32-7.05 538.69-6.15 540.54-6.15ZM569.29 0.6L569.29 0.6Q565.89 0.6 563.29-1.15 560.69-2.9 559.24-5.88 557.79-8.85 557.79-12.6L557.79-12.6Q557.79-16.5 559.49-19.58 561.19-22.65 564.32-24.45 567.44-26.25 571.69-26.25L571.69-26.25Q575.99-26.25 579.02-24.48 582.04-22.7 583.67-19.63 585.29-16.55 585.29-12.75L585.29-12.75 585.29 0 577.69 0 577.69-4.1 577.49-4.1Q576.79-2.75 575.69-1.68 574.59-0.6 573.02 0 571.44 0.6 569.29 0.6ZM571.59-6.1L571.59-6.1Q573.34-6.1 574.67-6.98 575.99-7.85 576.69-9.4 577.39-10.95 577.39-12.85L577.39-12.85Q577.39-14.7 576.69-16.2 575.99-17.7 574.67-18.57 573.34-19.45 571.59-19.45L571.59-19.45Q569.79-19.45 568.44-18.57 567.09-17.7 566.39-16.2 565.69-14.7 565.69-12.85L565.69-12.85Q565.69-10.95 566.39-9.4 567.09-7.85 568.44-6.98 569.79-6.1 571.59-6.1ZM603.59 0.6L603.59 0.6Q607.74 0.6 610.84-1.1 613.94-2.8 615.64-5.95 617.34-9.1 617.34-13.3L617.34-13.3 617.34-36.5 609.59-36.5 609.59-22.85 609.44-22.85Q608.69-23.9 607.56-24.68 606.44-25.45 605.06-25.85 603.69-26.25 602.14-26.25L602.14-26.25Q598.49-26.25 595.74-24.6 592.99-22.95 591.41-20.05 589.84-17.15 589.84-13.25L589.84-13.25Q589.84-10.25 590.79-7.7 591.74-5.15 593.51-3.28 595.29-1.4 597.81-0.4 600.34 0.6 603.59 0.6ZM603.59-6.1L603.59-6.1Q601.79-6.1 600.49-6.98 599.19-7.85 598.46-9.38 597.74-10.9 597.74-12.8L597.74-12.8Q597.74-14.7 598.46-16.2 599.19-17.7 600.49-18.57 601.79-19.45 603.59-19.45L603.59-19.45Q605.39-19.45 606.71-18.57 608.04-17.7 608.74-16.2 609.44-14.7 609.44-12.8L609.44-12.8Q609.44-10.9 608.74-9.38 608.04-7.85 606.71-6.98 605.39-6.1 603.59-6.1ZM635.74 0.6L635.74 0.6Q631.79 0.6 628.91-0.93 626.04-2.45 624.49-5.08 622.94-7.7 622.94-10.9L622.94-10.9 622.94-25.65 630.69-25.65 630.69-11.1Q630.69-9.75 631.34-8.63 631.99-7.5 633.11-6.83 634.24-6.15 635.69-6.15L635.69-6.15Q637.09-6.15 638.21-6.83 639.34-7.5 639.99-8.63 640.64-9.75 640.64-11.1L640.64-11.1 640.64-25.65 648.39-25.65 648.39-10.9Q648.39-7.7 646.89-5.08 645.39-2.45 642.56-0.93 639.74 0.6 635.74 0.6Z"
                                                                opacity="1" transform="matrix(1,0,0,1,0,0)"
                                                                fill="#000000" class="slogan-text-1"
                                                                data-fill-palette-color="secondary" id="text-1"></path>
                                                        </svg></g>
                                                </svg></g>
                                        </svg></g>
                                </svg></g>
                        </svg></g>
                    <defs></defs>
                </svg>
                <rect width="395.52" height="171.417902187239" fill="none" stroke="none" visibility="hidden"></rect>
            </g>
        </svg></g>
</svg>